<?xml version="1.0" encoding="utf-8"?>
<!-- Generator: Adobe Illustrator 24.3.0, SVG Export Plug-In . SVG Version: 6.00 Build 0)  -->
<svg version="1.1" id="Capa_1" xmlns="http://www.w3.org/2000/svg" xmlns:xlink="http://www.w3.org/1999/xlink" x="0px" y="0px"
	 viewBox="0 0 112.8 100" style="enable-background:new 0 0 112.8 100;" xml:space="preserve">
<style type="text/css">
	.st0{fill:#00858A;}
</style>
<g>
	<g>
		<path class="st0" d="M112.8,4c0-2.2-1.8-4-4-4s-4,1.8-4,4s1.8,4,4,4S112.8,6.2,112.8,4z"/>
		<path class="st0" d="M91.8,4c0-2.2-1.8-4-4-4s-4,1.8-4,4s1.8,4,4,4S91.8,6.2,91.8,4z"/>
		<path class="st0" d="M70.9,4c0-2.2-1.8-4-4-4s-4,1.8-4,4s1.8,4,4,4S70.9,6.2,70.9,4z"/>
		<path class="st0" d="M49.9,4c0-2.2-1.8-4-4-4s-4,1.8-4,4s1.8,4,4,4C48.1,8,49.9,6.2,49.9,4z"/>
		<path class="st0" d="M29,4c0-2.2-1.8-4-4-4s-4,1.8-4,4s1.8,4,4,4S29,6.2,29,4z"/>
		<path class="st0" d="M8,4c0-2.2-1.8-4-4-4S0,1.8,0,4s1.8,4,4,4S8,6.2,8,4z"/>
		<path class="st0" d="M112.8,27c0-2.2-1.8-4-4-4s-4,1.8-4,4s1.8,4,4,4S112.8,29.2,112.8,27z"/>
		<path class="st0" d="M91.8,27c0-2.2-1.8-4-4-4s-4,1.8-4,4s1.8,4,4,4S91.8,29.2,91.8,27z"/>
		<path class="st0" d="M70.9,27c0-2.2-1.8-4-4-4s-4,1.8-4,4s1.8,4,4,4S70.9,29.2,70.9,27z"/>
		<path class="st0" d="M49.9,27c0-2.2-1.8-4-4-4s-4,1.8-4,4s1.8,4,4,4C48.1,31,49.9,29.2,49.9,27z"/>
		<path class="st0" d="M29,27c0-2.2-1.8-4-4-4s-4,1.8-4,4s1.8,4,4,4S29,29.2,29,27z"/>
		<path class="st0" d="M8,27c0-2.2-1.8-4-4-4s-4,1.8-4,4s1.8,4,4,4S8,29.2,8,27z"/>
		<path class="st0" d="M112.8,50c0-2.2-1.8-4-4-4s-4,1.8-4,4s1.8,4,4,4S112.8,52.2,112.8,50z"/>
		<path class="st0" d="M91.8,50c0-2.2-1.8-4-4-4s-4,1.8-4,4s1.8,4,4,4S91.8,52.2,91.8,50z"/>
		<path class="st0" d="M70.9,50c0-2.2-1.8-4-4-4s-4,1.8-4,4s1.8,4,4,4S70.9,52.2,70.9,50z"/>
		<path class="st0" d="M49.9,50c0-2.2-1.8-4-4-4s-4,1.8-4,4s1.8,4,4,4C48.1,54,49.9,52.2,49.9,50z"/>
		<path class="st0" d="M29,50c0-2.2-1.8-4-4-4s-4,1.8-4,4s1.8,4,4,4S29,52.2,29,50z"/>
		<path class="st0" d="M8,50c0-2.2-1.8-4-4-4s-4,1.8-4,4s1.8,4,4,4S8,52.2,8,50z"/>
		<path class="st0" d="M112.8,73c0-2.2-1.8-4-4-4s-4,1.8-4,4s1.8,4,4,4S112.8,75.2,112.8,73z"/>
		<path class="st0" d="M91.8,73c0-2.2-1.8-4-4-4s-4,1.8-4,4s1.8,4,4,4S91.8,75.2,91.8,73z"/>
		<path class="st0" d="M70.9,73c0-2.2-1.8-4-4-4s-4,1.8-4,4s1.8,4,4,4S70.9,75.2,70.9,73z"/>
		<path class="st0" d="M49.9,73c0-2.2-1.8-4-4-4s-4,1.8-4,4s1.8,4,4,4C48.1,77,49.9,75.2,49.9,73z"/>
		<path class="st0" d="M29,73c0-2.2-1.8-4-4-4s-4,1.8-4,4s1.8,4,4,4S29,75.2,29,73z"/>
		<path class="st0" d="M8,73c0-2.2-1.8-4-4-4s-4,1.8-4,4s1.8,4,4,4S8,75.2,8,73z"/>
		<circle class="st0" cx="108.8" cy="96" r="4"/>
		<path class="st0" d="M91.8,96c0-2.2-1.8-4-4-4s-4,1.8-4,4s1.8,4,4,4S91.8,98.2,91.8,96z"/>
		<circle class="st0" cx="66.9" cy="96" r="4"/>
		<circle class="st0" cx="45.9" cy="96" r="4"/>
		<path class="st0" d="M29,96c0-2.2-1.8-4-4-4s-4,1.8-4,4s1.8,4,4,4S29,98.2,29,96z"/>
		<circle class="st0" cx="4" cy="96" r="4"/>
	</g>
</g>
</svg>
