<?xml version="1.0" encoding="utf-8"?>
<!-- Generator: Adobe Illustrator 24.3.0, SVG Export Plug-In . SVG Version: 6.00 Build 0)  -->
<svg version="1.1" id="Capa_1" xmlns="http://www.w3.org/2000/svg" xmlns:xlink="http://www.w3.org/1999/xlink" x="0px" y="0px"
	 viewBox="0 0 283.5 17" style="enable-background:new 0 0 283.5 17;" xml:space="preserve">
<style type="text/css">
	.st0{fill:#009CAD;}
</style>
<path class="st0" d="M270,0.7c-5.5-0.4-70.7-1.3-107.8,0C90.6,3.2,27.1,9.2,12.3,11.4S-3,15.1,5.8,15.7c9.2,0.6,24.9,0.4,34.5-1
	c-1.4,0.7-2.5,2.7,0,2.2c2.3-0.4,83.5-4.9,88.3-4.9c4.8,0,17.2,0.5,21.6,0c4.3-0.5,109.3,0.7,116.2,0.8c11.5,0.1,15.1,0.1,16-0.3
	c1.6-0.7-2.4-4.1-4.3-5.2c5.1,1,5.9,0.4,5.1-1C281.5,3.8,276.8,1.3,270,0.7z"/>
</svg>
